<?xml version="1.0" encoding="UTF-8" ?>
<!DOCTYPE svg PUBLIC "-//W3C//DTD SVG 1.1//EN" "http://www.w3.org/Graphics/SVG/1.1/DTD/svg11.dtd">
<svg width="200pt" height="137pt" viewBox="0 0 200 137" version="1.1" xmlns="http://www.w3.org/2000/svg">
<g id="#838587ff">
<path fill="#838587" opacity="1.00" d=" M 0.00 0.00 L 72.87 0.00 C 77.68 1.16 82.91 1.86 87.14 4.83 C 95.99 10.26 99.86 21.04 99.87 31.03 C 99.83 42.39 100.02 53.77 99.76 65.13 C 99.45 65.70 99.17 66.29 98.91 66.89 C 99.14 67.26 99.59 68.00 99.82 68.37 C 99.92 81.27 99.91 94.18 99.83 107.08 C 99.62 117.18 95.13 127.91 85.87 132.85 C 81.79 135.48 76.80 135.83 72.32 137.00 L 0.00 137.00 L 0.00 102.63 C 19.67 102.65 39.32 103.16 58.99 103.20 C 62.57 103.43 66.04 100.65 66.21 96.98 C 66.22 77.96 66.21 58.94 66.21 39.92 C 66.00 36.64 63.26 33.97 59.99 33.76 C 39.99 33.68 20.00 34.30 0.00 34.30 L 0.00 0.00 Z" />
</g>
<g id="#ee3940ff">
<path fill="#ee3940" opacity="1.00" d=" M 155.57 0.00 L 199.86 0.00 C 180.79 22.40 161.42 44.54 142.23 66.84 C 161.58 88.93 180.71 111.23 199.87 133.47 C 185.02 133.11 170.04 133.74 155.25 133.15 C 136.83 111.52 118.42 89.85 99.82 68.37 C 99.59 68.00 99.14 67.26 98.91 66.89 C 99.17 66.29 99.45 65.70 99.76 65.13 C 102.28 62.81 104.21 59.94 106.54 57.44 C 122.86 38.29 139.36 19.16 155.57 0.00 Z" />
</g>
</svg>
